# xmcd
#
# Track frame offsets:
#  182
#  13332
#  27277
#  40360
#  53387
#  65160
#  79962
#  91880
#  104682
#  118690
#  129995
#  140987
#  153420
#  164755
#  177557
#  188997
#
# Disc length: 2690 seconds
#
# Revision: 3
# Processed by: cddbd v1.5.1PL2 Copyright (c) Steve Scherf et al.
# Submitted via: AltoMP3_Maker 3.0
#
DISCID=ec0a8010
DTITLE=Buck Owens - Country Music Hall of Fame Series
DYEAR=1900
DGENRE=
TTITLE0=Sam Hall
TTITLE1=Get Along Little Dogies
TTITLE2=Lady Killin' Cowboy
TTITLE3=Bill, The Bar Fly
TTITLE4=My Brown Eyed Texas Rose
TTITLE5=(Take Me Back To My) Boots and Saddles
TTITLE6=The Hills of Old Wyomin'
TTITLE7=We'll Rest at the End of the Trail
TTITLE8=High, Wide and Handsome
TTITLE9=I'm a Natural Born Cowboy
TTITLE10=Ride, Ride, Ride
TTITLE11=Sing, Cowboy, Sing
TTITLE12=When It's LampLighting Time in the Valley
TTITLE13=Singin' in the Saddle
TTITLE14=Ai Viva Tequila
TTITLE15=Out on the Lone Prairie
EXTD=
EXTT0=
EXTT1=
EXTT2=
EXTT3=
EXTT4=
EXTT5=
EXTT6=
EXTT7=
EXTT8=
EXTT9=
EXTT10=
EXTT11=
EXTT12=
EXTT13=
EXTT14=
EXTT15=
PLAYORDER=
